<?xml version="1.0" encoding="UTF-8" standalone="no"?>
<svg viewBox="0 0 48 30" version="1.1" xmlns="http://www.w3.org/2000/svg" xmlns:xlink="http://www.w3.org/1999/xlink" xmlns:sketch="http://www.bohemiancoding.com/sketch/ns">
    <!-- Generator: Sketch 3.4.4 (17249) - http://www.bohemiancoding.com/sketch -->
    <title>G+</title>
    <desc>Created with Sketch.</desc>
    <defs></defs>
    <g id="Article" stroke="none" stroke-width="1" fill="none" fill-rule="evenodd" sketch:type="MSPage">
        <g id="iPhone-6-Plus" sketch:type="MSArtboardGroup" transform="translate(-263.000000, -1846.000000)" fill="#CBC9C9">
            <g id="footer" sketch:type="MSLayerGroup" transform="translate(30.000000, 1484.000000)">
                <g id="share" transform="translate(0.000000, 299.000000)" sketch:type="MSShapeGroup">
                    <g id="Social" transform="translate(73.000000, 63.000000)">
                        <g id="G+" transform="translate(160.846154, 0.000000)">
                            <path d="M0.0605,14.431 C0.187,6.8625 7.145,0.2345 14.7135,0.487 C18.34,0.3185 21.749,1.8965 24.5265,4.113 C23.341,5.46 22.1135,6.7575 20.802,7.971 C17.463,5.6635 12.7145,5.004 9.3755,7.6695 C4.599,10.973 4.3815,18.773 8.976,22.329 C13.444,26.3835 21.889,24.3705 23.1235,18.1625 C20.325,18.1205 17.519,18.1625 14.7205,18.0715 C14.7135,16.402 14.7065,14.7325 14.7135,13.0635 C19.392,13.0495 24.0705,13.042 28.756,13.0775 C29.0365,17.0055 28.5175,21.186 26.1045,24.4335 C22.45,29.575 15.1135,31.076 9.3895,28.8735 C3.645,26.685 -0.4235,20.6175 0.0605,14.431" id="Fill-20"></path>
                            <path d="M37.8815,8.8475 L42.055,8.8475 C42.062,10.2435 42.069,11.6465 42.083,13.042 C43.479,13.0565 44.882,13.0565 46.2775,13.0705 L46.2775,17.244 C44.882,17.258 43.486,17.265 42.083,17.279 C42.069,18.6815 42.062,20.0775 42.055,21.4735 L37.8745,21.4735 C37.8605,20.0775 37.8605,18.6815 37.8465,17.286 C36.4505,17.272 35.048,17.258 33.652,17.244 L33.652,13.0705 C35.048,13.0565 36.4435,13.0495 37.8465,13.042 C37.8535,11.6395 37.8675,10.2435 37.8815,8.8475" id="Fill-21"></path>
                        </g>
                    </g>
                </g>
            </g>
        </g>
    </g>
</svg>
