<?xml version="1.0" encoding="UTF-8" standalone="no"?>
<svg viewBox="0 0 44 30" version="1.1" xmlns="http://www.w3.org/2000/svg" xmlns:xlink="http://www.w3.org/1999/xlink" xmlns:sketch="http://www.bohemiancoding.com/sketch/ns">
    <!-- Generator: Sketch 3.4.4 (17249) - http://www.bohemiancoding.com/sketch -->
    <title>twitter</title>
    <desc>Created with Sketch.</desc>
    <defs></defs>
    <g id="Article" stroke="none" stroke-width="1" fill="none" fill-rule="evenodd" sketch:type="MSPage">
        <g id="iPhone-6-Plus" sketch:type="MSArtboardGroup" transform="translate(-169.000000, -1846.000000)" fill="#CBC9C9">
            <g id="footer" sketch:type="MSLayerGroup" transform="translate(30.000000, 1484.000000)">
                <g id="share" transform="translate(0.000000, 299.000000)" sketch:type="MSShapeGroup">
                    <g id="Social" transform="translate(73.000000, 63.000000)">
                        <path d="M100.869776,4.69030592 C100.869776,4.69030592 100.869776,4.35528407 100.869776,4.69030592 C99.1435494,3.01519666 97.0720775,2.34515296 95.0006057,2.68017481 L95.0006057,2.68017481 L95.0006057,2.68017481 C97.0720775,2.34515296 98.1078134,1.67510926 98.4530588,1.34008741 C98.4530588,1.00506555 98.4530588,0.670043703 98.1078134,0.670043703 C97.0720775,0.670043703 96.0363416,1.00506555 95.345851,1.34008741 C96.3815869,0.670043703 96.7268322,0.335021852 96.7268322,7.81597009e-14 C95.6910963,7.81597009e-14 94.6553604,0.670043703 93.2743792,1.67510926 C93.6196245,1.00506555 93.9648698,0.670043703 93.6196245,0.335021852 C92.9291339,0.670043703 92.5838886,1.00506555 92.2386432,1.67510926 C91.2029073,2.68017481 90.5124167,3.35021852 90.1671714,4.35528407 L90.1671714,4.35528407 C88.7861902,6.70043703 87.7504543,8.71056814 87.0599637,11.0557211 L86.7147184,11.0557211 C86.0242277,10.0506555 84.9884918,9.04558999 83.6075106,8.37554629 C82.2265294,7.37048073 80.5003028,6.70043703 78.428831,5.69537148 C76.3573592,4.69030592 74.2858873,3.68524037 71.8691702,3.01519666 C71.8691702,5.36034963 72.9049061,7.37048073 75.3216233,8.71056814 L75.3216233,8.71056814 C74.6311326,8.71056814 73.5953967,8.71056814 72.9049061,9.04558999 C72.9049061,11.0557211 74.6311326,12.7308304 77.7383404,13.4008741 L77.7383404,13.4008741 C76.7026045,13.4008741 75.6668686,13.7358959 74.6311326,14.4059396 C75.6668686,16.4160707 77.3930951,17.0861144 80.1550575,17.0861144 C79.8098122,17.4211363 79.1193216,17.7561581 79.1193216,17.7561581 C78.7740763,18.09118 78.428831,18.7612237 78.7740763,19.4312674 C79.4645669,20.4363329 80.1550575,20.7713548 81.8812841,20.7713548 L81.8812841,20.7713548 L81.8812841,20.7713548 C79.4645669,23.1165078 76.3573592,24.4565952 72.9049061,24.1215733 L72.9049061,24.1215733 C70.8334343,24.1215733 68.4167171,23.1165078 66,21.1063767 C68.4167171,24.4565952 71.8691702,27.13677 76.0121139,28.8118792 C80.8455482,30.1519666 85.6789824,30.4869885 90.1671714,29.1469011 L90.1671714,29.1469011 C94.6553604,27.8068137 98.7983041,25.1266389 101.905512,21.4413985 C103.286493,19.4312674 104.322229,17.4211363 104.667474,15.4110052 C107.084191,15.4110052 108.810418,14.7409615 109.846154,13.4008741 L109.846154,13.4008741 C109.155663,13.7358959 107.429437,13.7358959 105.01272,13.0658522 L105.01272,13.0658522 L105.01272,13.0658522 C107.429437,12.7308304 109.155663,12.0607867 109.500909,10.7206993 C107.774682,11.390743 106.048455,11.390743 104.322229,10.7206993 C103.976984,8.37554629 102.941248,6.36541518 100.869776,4.69030592 L100.869776,4.69030592 Z" id="twitter"></path>
                    </g>
                </g>
            </g>
        </g>
    </g>
</svg>
