<svg viewBox="0 0 48 30" xmlns="http://www.w3.org/2000/svg"><title>G+</title><path d="M.907 14.43C1.033 6.864 7.99.236 15.56.488c3.626-.168 7.035 1.41 9.813 3.626-1.186 1.347-2.413 2.644-3.725 3.858-3.34-2.306-8.087-2.966-11.426-.3-4.777 3.303-4.994 11.103-.4 14.66 4.468 4.054 12.913 2.04 14.148-4.167-2.8-.043-5.605 0-8.403-.09a597.18 597.18 0 0 1-.007-5.01 1369.5 1369.5 0 0 1 14.042.014c.28 3.93-.238 8.11-2.65 11.353-3.656 5.142-10.992 6.643-16.716 4.44C4.49 26.683.423 20.617.906 14.43m37.822-5.58H42.9c.008 1.395.015 2.798.03 4.194 1.395.014 2.798.014 4.194.028v4.174c-1.396.014-2.792.02-4.195.035-.018 1.4-.025 2.798-.03 4.195h-4.18c-.016-1.396-.016-2.793-.03-4.188l-4.195-.042V13.07c1.396-.014 2.792-.02 4.195-.028.008-1.402.02-2.8.036-4.194" fill="#CBC9C9" fill-rule="evenodd"/></svg>