<svg viewBox="0 0 44 30" xmlns="http://www.w3.org/2000/svg"><title>twitter</title><path d="M34.87 4.69s0-.335 0 0C33.144 3.015 31.072 2.345 29 2.68c2.072-.335 3.108-1.005 3.453-1.34 0-.335 0-.67-.345-.67-1.036 0-2.072.335-2.762.67C30.382.67 30.726.335 30.726 0c-1.035 0-2.07.67-3.452 1.675.346-.67.69-1.005.346-1.34-.69.335-1.036.67-1.38 1.34-1.037 1.005-1.728 1.675-2.073 2.68-1.38 2.345-2.417 4.356-3.107 6.7h-.345a8.073 8.073 0 0 0-3.107-2.68c-1.38-1.005-3.108-1.675-5.18-2.68-2.07-1.005-4.142-2.01-6.56-2.68 0 2.345 1.037 4.355 3.454 5.696-.69 0-1.727 0-2.417.337 0 2.01 1.726 3.685 4.833 4.355-1.035 0-2.07.336-3.107 1.006 1.038 2.01 2.764 2.68 5.526 2.68-.345.335-1.036.67-1.036.67-.346.335-.69 1.005-.346 1.675.69 1.006 1.38 1.34 3.107 1.34-2.414 2.347-5.522 3.687-8.974 3.352-2.072 0-4.488-1.005-6.905-3.016 2.418 3.35 5.87 6.03 10.013 7.705 4.834 1.34 9.667 1.675 14.155.335a24.686 24.686 0 0 0 11.74-7.706c1.38-2.01 2.415-4.02 2.76-6.03 2.417 0 4.143-.67 5.18-2.01-.69.336-2.418.336-4.834-.334 2.416-.335 4.143-1.005 4.488-2.345-1.725.67-3.452.67-5.178 0-.345-2.344-1.38-4.355-3.452-6.03z" fill="#CBC9C9" fill-rule="evenodd"/></svg>